<svg width="342" height="342" viewBox="0 0 342 342" fill="none" xmlns="http://www.w3.org/2000/svg">
<rect width="342" height="342" fill="#6C28D9"/>
<path d="M99 110.142L113.142 96L145.832 128.69C149.737 132.595 149.737 138.926 145.832 142.832C141.926 146.737 135.595 146.737 131.69 142.832L99 110.142Z" fill="white" fill-opacity="0.5"/>
<path d="M106.915 94C112.438 94 116.915 98.4772 116.915 104V250H96.915V128.045L81.2119 143.748C77.3067 147.653 70.9746 147.653 67.0693 143.748C63.1643 139.843 63.1645 133.512 67.0693 129.606L99.7588 96.916L99.8076 96.9648C101.62 95.1339 104.135 94.0001 106.915 94ZM231.915 94C237.438 94 241.915 98.4772 241.915 104C241.915 109.523 237.438 114 231.915 114H174.915V162H219.915C225.438 162 229.915 166.477 229.915 172C229.915 177.523 225.438 182 219.915 182H174.915V250H154.915V94H231.915ZM271.915 139.054C277.438 139.054 281.915 143.531 281.915 149.054V250H261.915V149.054C261.915 143.531 266.392 139.054 271.915 139.054ZM281.997 104C281.997 109.523 277.52 114 271.997 114C266.474 114 261.997 109.523 261.997 104C261.997 98.4772 266.474 94.0001 271.997 94H281.997V104Z" fill="white"/>
</svg>
